<mxfile host="app.diagrams.net" agent="Mozilla/5.0 (Windows NT 10.0; Win64; x64) AppleWebKit/537.36 (KHTML, like Gecko) Chrome/129.0.0.0 Safari/537.36" version="24.8.1">
  <diagram id="C5RBs43oDa-KdzZeNtuy" name="Page-1">
    <mxGraphModel dx="1793" dy="995" grid="1" gridSize="10" guides="1" tooltips="1" connect="1" arrows="1" fold="1" page="1" pageScale="1" pageWidth="827" pageHeight="1169" math="0" shadow="0">
      <root>
        <mxCell id="WIyWlLk6GJQsqaUBKTNV-0" />
        <mxCell id="WIyWlLk6GJQsqaUBKTNV-1" parent="WIyWlLk6GJQsqaUBKTNV-0" />
        <mxCell id="z7jrTC8clPqgcdRXfUCI-2" value="&amp;nbsp;明王侧目·扇形&amp;nbsp;" style="rounded=0;whiteSpace=wrap;html=1;" vertex="1" parent="WIyWlLk6GJQsqaUBKTNV-1">
          <mxGeometry x="130" y="240" width="120" height="40" as="geometry" />
        </mxCell>
        <mxCell id="z7jrTC8clPqgcdRXfUCI-4" value="&lt;strong style=&quot;outline: none; max-width: 100%; box-sizing: border-box; color: rgb(61, 69, 77); font-family: -apple-system, BlinkMacSystemFont, &amp;quot;Segoe UI&amp;quot;, &amp;quot;Microsoft YaHei&amp;quot;, &amp;quot;Trebuchet MS&amp;quot;, Calibri, &amp;quot;Helvetica Neue&amp;quot;, Helvetica, sans-serif; font-size: 14px; text-align: start; background-color: rgb(255, 255, 255);&quot;&gt;明王侧目&lt;/strong&gt;" style="rounded=0;whiteSpace=wrap;html=1;" vertex="1" parent="WIyWlLk6GJQsqaUBKTNV-1">
          <mxGeometry y="140" width="120" height="40" as="geometry" />
        </mxCell>
        <mxCell id="z7jrTC8clPqgcdRXfUCI-5" value="神树夺株" style="rounded=0;whiteSpace=wrap;html=1;" vertex="1" parent="WIyWlLk6GJQsqaUBKTNV-1">
          <mxGeometry x="260" y="240" width="120" height="40" as="geometry" />
        </mxCell>
        <mxCell id="z7jrTC8clPqgcdRXfUCI-10" value="生死戏龙" style="rounded=0;whiteSpace=wrap;html=1;" vertex="1" parent="WIyWlLk6GJQsqaUBKTNV-1">
          <mxGeometry x="260" y="290" width="120" height="40" as="geometry" />
        </mxCell>
        <mxCell id="z7jrTC8clPqgcdRXfUCI-14" value="匡庐见魔" style="rounded=0;whiteSpace=wrap;html=1;" vertex="1" parent="WIyWlLk6GJQsqaUBKTNV-1">
          <mxGeometry x="130" y="340" width="120" height="40" as="geometry" />
        </mxCell>
        <mxCell id="z7jrTC8clPqgcdRXfUCI-15" value="&lt;span style=&quot;outline: none; max-width: 100%; box-sizing: border-box; font-family: -apple-system, BlinkMacSystemFont, &amp;quot;Segoe UI&amp;quot;, &amp;quot;Microsoft YaHei&amp;quot;, &amp;quot;Trebuchet MS&amp;quot;, Calibri, &amp;quot;Helvetica Neue&amp;quot;, Helvetica, sans-serif; font-size: 12px; text-align: start; background-color: rgb(255, 255, 255);&quot;&gt;神树夺株&lt;/span&gt;" style="rounded=0;whiteSpace=wrap;html=1;fontStyle=0;fontColor=default;fontSize=12;" vertex="1" parent="WIyWlLk6GJQsqaUBKTNV-1">
          <mxGeometry x="130" y="190" width="120" height="40" as="geometry" />
        </mxCell>
        <mxCell id="z7jrTC8clPqgcdRXfUCI-16" value="&lt;span style=&quot;outline: none; max-width: 100%; box-sizing: border-box; color: rgb(61, 69, 77); font-family: -apple-system, BlinkMacSystemFont, &amp;quot;Segoe UI&amp;quot;, &amp;quot;Microsoft YaHei&amp;quot;, &amp;quot;Trebuchet MS&amp;quot;, Calibri, &amp;quot;Helvetica Neue&amp;quot;, Helvetica, sans-serif; font-size: 14px; text-align: start; background-color: rgb(255, 255, 255);&quot;&gt;云湖天葬&lt;/span&gt;" style="rounded=0;whiteSpace=wrap;html=1;" vertex="1" parent="WIyWlLk6GJQsqaUBKTNV-1">
          <mxGeometry x="130" y="140" width="120" height="40" as="geometry" />
        </mxCell>
        <mxCell id="z7jrTC8clPqgcdRXfUCI-17" value="&lt;div style=&quot;text-align: start;&quot;&gt;神树夺株&lt;br&gt;&lt;/div&gt;" style="rounded=0;whiteSpace=wrap;html=1;" vertex="1" parent="WIyWlLk6GJQsqaUBKTNV-1">
          <mxGeometry x="260" y="340" width="120" height="40" as="geometry" />
        </mxCell>
        <mxCell id="z7jrTC8clPqgcdRXfUCI-18" value="&lt;span style=&quot;outline: none; max-width: 100%; box-sizing: border-box; color: rgb(61, 69, 77); font-family: -apple-system, BlinkMacSystemFont, &amp;quot;Segoe UI&amp;quot;, &amp;quot;Microsoft YaHei&amp;quot;, &amp;quot;Trebuchet MS&amp;quot;, Calibri, &amp;quot;Helvetica Neue&amp;quot;, Helvetica, sans-serif; font-size: 14px; text-align: start; background-color: rgb(255, 255, 255);&quot;&gt;生死戏龙&lt;/span&gt;" style="rounded=0;whiteSpace=wrap;html=1;fontStyle=0" vertex="1" parent="WIyWlLk6GJQsqaUBKTNV-1">
          <mxGeometry x="260" y="190" width="120" height="40" as="geometry" />
        </mxCell>
        <mxCell id="z7jrTC8clPqgcdRXfUCI-23" value="生死戏龙" style="rounded=0;whiteSpace=wrap;html=1;" vertex="1" parent="WIyWlLk6GJQsqaUBKTNV-1">
          <mxGeometry x="130" y="515" width="120" height="40" as="geometry" />
        </mxCell>
        <mxCell id="z7jrTC8clPqgcdRXfUCI-24" value="&lt;strong style=&quot;outline: none; max-width: 100%; box-sizing: border-box; color: rgb(61, 69, 77); font-family: -apple-system, BlinkMacSystemFont, &amp;quot;Segoe UI&amp;quot;, &amp;quot;Microsoft YaHei&amp;quot;, &amp;quot;Trebuchet MS&amp;quot;, Calibri, &amp;quot;Helvetica Neue&amp;quot;, Helvetica, sans-serif; font-size: 14px; text-align: start; background-color: rgb(255, 255, 255);&quot;&gt;神树夺株&lt;/strong&gt;" style="rounded=0;whiteSpace=wrap;html=1;" vertex="1" parent="WIyWlLk6GJQsqaUBKTNV-1">
          <mxGeometry y="460" width="120" height="40" as="geometry" />
        </mxCell>
        <mxCell id="z7jrTC8clPqgcdRXfUCI-27" value="无" style="rounded=0;whiteSpace=wrap;html=1;" vertex="1" parent="WIyWlLk6GJQsqaUBKTNV-1">
          <mxGeometry x="260" y="565" width="120" height="40" as="geometry" />
        </mxCell>
        <mxCell id="z7jrTC8clPqgcdRXfUCI-28" value="&lt;span style=&quot;color: rgb(61, 69, 77); font-family: -apple-system, BlinkMacSystemFont, &amp;quot;Segoe UI&amp;quot;, &amp;quot;Microsoft YaHei&amp;quot;, &amp;quot;Trebuchet MS&amp;quot;, Calibri, &amp;quot;Helvetica Neue&amp;quot;, Helvetica, sans-serif; font-size: 14px; text-align: start; background-color: rgb(255, 255, 255);&quot;&gt;云湖天葬&lt;/span&gt;" style="rounded=0;whiteSpace=wrap;html=1;" vertex="1" parent="WIyWlLk6GJQsqaUBKTNV-1">
          <mxGeometry x="130" y="460" width="120" height="40" as="geometry" />
        </mxCell>
        <mxCell id="z7jrTC8clPqgcdRXfUCI-31" value="&lt;div style=&quot;text-align: start;&quot;&gt;&lt;span style=&quot;color: rgb(61, 69, 77); font-family: -apple-system, BlinkMacSystemFont, &amp;quot;Segoe UI&amp;quot;, &amp;quot;Microsoft YaHei&amp;quot;, &amp;quot;Trebuchet MS&amp;quot;, Calibri, &amp;quot;Helvetica Neue&amp;quot;, Helvetica, sans-serif; font-size: 14px; background-color: rgb(255, 255, 255);&quot;&gt;生死戏龙&lt;/span&gt;&lt;br&gt;&lt;/div&gt;" style="rounded=0;whiteSpace=wrap;html=1;" vertex="1" parent="WIyWlLk6GJQsqaUBKTNV-1">
          <mxGeometry x="260" y="460" width="120" height="40" as="geometry" />
        </mxCell>
        <mxCell id="z7jrTC8clPqgcdRXfUCI-49" value="匡庐见魔" style="rounded=0;whiteSpace=wrap;html=1;" vertex="1" parent="WIyWlLk6GJQsqaUBKTNV-1">
          <mxGeometry x="130" y="800" width="120" height="40" as="geometry" />
        </mxCell>
        <mxCell id="z7jrTC8clPqgcdRXfUCI-50" value="&lt;strong style=&quot;outline: none; max-width: 100%; box-sizing: border-box; color: rgb(61, 69, 77); font-family: -apple-system, BlinkMacSystemFont, &amp;quot;Segoe UI&amp;quot;, &amp;quot;Microsoft YaHei&amp;quot;, &amp;quot;Trebuchet MS&amp;quot;, Calibri, &amp;quot;Helvetica Neue&amp;quot;, Helvetica, sans-serif; font-size: 14px; text-align: start; background-color: rgb(255, 255, 255);&quot;&gt;武夷殉葬&lt;/strong&gt;" style="rounded=0;whiteSpace=wrap;html=1;" vertex="1" parent="WIyWlLk6GJQsqaUBKTNV-1">
          <mxGeometry y="640" width="120" height="40" as="geometry" />
        </mxCell>
        <mxCell id="z7jrTC8clPqgcdRXfUCI-52" value="无" style="rounded=0;whiteSpace=wrap;html=1;" vertex="1" parent="WIyWlLk6GJQsqaUBKTNV-1">
          <mxGeometry x="260" y="960" width="120" height="40" as="geometry" />
        </mxCell>
        <mxCell id="z7jrTC8clPqgcdRXfUCI-53" value="生死戏龙" style="rounded=0;whiteSpace=wrap;html=1;" vertex="1" parent="WIyWlLk6GJQsqaUBKTNV-1">
          <mxGeometry x="260" y="800" width="120" height="40" as="geometry" />
        </mxCell>
        <mxCell id="z7jrTC8clPqgcdRXfUCI-54" value="明王侧目·扇形" style="rounded=0;whiteSpace=wrap;html=1;" vertex="1" parent="WIyWlLk6GJQsqaUBKTNV-1">
          <mxGeometry x="130" y="700" width="120" height="40" as="geometry" />
        </mxCell>
        <mxCell id="z7jrTC8clPqgcdRXfUCI-55" value="&lt;span style=&quot;outline: none; max-width: 100%; box-sizing: border-box; font-family: -apple-system, BlinkMacSystemFont, &amp;quot;Segoe UI&amp;quot;, &amp;quot;Microsoft YaHei&amp;quot;, &amp;quot;Trebuchet MS&amp;quot;, Calibri, &amp;quot;Helvetica Neue&amp;quot;, Helvetica, sans-serif; font-size: 12px; text-align: start; background-color: rgb(255, 255, 255);&quot;&gt;神树夺株&lt;/span&gt;" style="rounded=0;whiteSpace=wrap;html=1;fontStyle=0;fontColor=default;fontSize=12;" vertex="1" parent="WIyWlLk6GJQsqaUBKTNV-1">
          <mxGeometry x="130" y="640" width="120" height="40" as="geometry" />
        </mxCell>
        <mxCell id="z7jrTC8clPqgcdRXfUCI-57" value="&lt;div style=&quot;text-align: start;&quot;&gt;云湖天葬&lt;br&gt;&lt;/div&gt;" style="rounded=0;whiteSpace=wrap;html=1;" vertex="1" parent="WIyWlLk6GJQsqaUBKTNV-1">
          <mxGeometry x="260" y="850" width="120" height="40" as="geometry" />
        </mxCell>
        <mxCell id="z7jrTC8clPqgcdRXfUCI-58" value="&lt;span style=&quot;outline: none; max-width: 100%; box-sizing: border-box; color: rgb(61, 69, 77); font-family: -apple-system, BlinkMacSystemFont, &amp;quot;Segoe UI&amp;quot;, &amp;quot;Microsoft YaHei&amp;quot;, &amp;quot;Trebuchet MS&amp;quot;, Calibri, &amp;quot;Helvetica Neue&amp;quot;, Helvetica, sans-serif; font-size: 14px; text-align: start; background-color: rgb(255, 255, 255);&quot;&gt;死城啸声&lt;/span&gt;" style="rounded=0;whiteSpace=wrap;html=1;fontStyle=0" vertex="1" parent="WIyWlLk6GJQsqaUBKTNV-1">
          <mxGeometry x="260" y="900" width="120" height="40" as="geometry" />
        </mxCell>
        <mxCell id="z7jrTC8clPqgcdRXfUCI-59" value="&lt;span style=&quot;outline: none; max-width: 100%; box-sizing: border-box; color: rgb(61, 69, 77); font-family: -apple-system, BlinkMacSystemFont, &amp;quot;Segoe UI&amp;quot;, &amp;quot;Microsoft YaHei&amp;quot;, &amp;quot;Trebuchet MS&amp;quot;, Calibri, &amp;quot;Helvetica Neue&amp;quot;, Helvetica, sans-serif; font-size: 14px; text-align: start; background-color: rgb(255, 255, 255);&quot;&gt;无&lt;/span&gt;" style="rounded=0;whiteSpace=wrap;html=1;fontStyle=0" vertex="1" parent="WIyWlLk6GJQsqaUBKTNV-1">
          <mxGeometry x="260" y="750" width="120" height="40" as="geometry" />
        </mxCell>
        <mxCell id="z7jrTC8clPqgcdRXfUCI-60" value="&lt;span style=&quot;color: rgb(61, 69, 77); font-family: -apple-system, BlinkMacSystemFont, &amp;quot;Segoe UI&amp;quot;, &amp;quot;Microsoft YaHei&amp;quot;, &amp;quot;Trebuchet MS&amp;quot;, Calibri, &amp;quot;Helvetica Neue&amp;quot;, Helvetica, sans-serif; font-size: 14px; text-align: start; background-color: rgb(255, 255, 255);&quot;&gt;死城啸声&lt;/span&gt;" style="rounded=0;whiteSpace=wrap;html=1;fontStyle=0" vertex="1" parent="WIyWlLk6GJQsqaUBKTNV-1">
          <mxGeometry x="260" y="700" width="120" height="40" as="geometry" />
        </mxCell>
        <mxCell id="z7jrTC8clPqgcdRXfUCI-61" value="&lt;span style=&quot;outline: none; max-width: 100%; box-sizing: border-box; color: rgb(61, 69, 77); font-family: -apple-system, BlinkMacSystemFont, &amp;quot;Segoe UI&amp;quot;, &amp;quot;Microsoft YaHei&amp;quot;, &amp;quot;Trebuchet MS&amp;quot;, Calibri, &amp;quot;Helvetica Neue&amp;quot;, Helvetica, sans-serif; font-size: 14px; text-align: start; background-color: rgb(255, 255, 255);&quot;&gt;死城啸声&lt;/span&gt;" style="rounded=0;whiteSpace=wrap;html=1;fontStyle=0" vertex="1" parent="WIyWlLk6GJQsqaUBKTNV-1">
          <mxGeometry x="260" y="640" width="120" height="40" as="geometry" />
        </mxCell>
        <mxCell id="z7jrTC8clPqgcdRXfUCI-62" value="明王侧目·扇形" style="rounded=0;whiteSpace=wrap;html=1;" vertex="1" parent="WIyWlLk6GJQsqaUBKTNV-1">
          <mxGeometry x="130" y="1090" width="120" height="40" as="geometry" />
        </mxCell>
        <mxCell id="z7jrTC8clPqgcdRXfUCI-63" value="&lt;strong style=&quot;outline: none; max-width: 100%; box-sizing: border-box; color: rgb(61, 69, 77); font-family: -apple-system, BlinkMacSystemFont, &amp;quot;Segoe UI&amp;quot;, &amp;quot;Microsoft YaHei&amp;quot;, &amp;quot;Trebuchet MS&amp;quot;, Calibri, &amp;quot;Helvetica Neue&amp;quot;, Helvetica, sans-serif; font-size: 14px; text-align: start; background-color: rgb(255, 255, 255);&quot;&gt;生死戏龙&lt;/strong&gt;" style="rounded=0;whiteSpace=wrap;html=1;" vertex="1" parent="WIyWlLk6GJQsqaUBKTNV-1">
          <mxGeometry y="1040" width="120" height="40" as="geometry" />
        </mxCell>
        <mxCell id="z7jrTC8clPqgcdRXfUCI-64" value="无" style="rounded=0;whiteSpace=wrap;html=1;" vertex="1" parent="WIyWlLk6GJQsqaUBKTNV-1">
          <mxGeometry x="260" y="1140" width="120" height="40" as="geometry" />
        </mxCell>
        <mxCell id="z7jrTC8clPqgcdRXfUCI-65" value="生死戏龙" style="rounded=0;whiteSpace=wrap;html=1;" vertex="1" parent="WIyWlLk6GJQsqaUBKTNV-1">
          <mxGeometry x="260" y="1090" width="120" height="40" as="geometry" />
        </mxCell>
        <mxCell id="z7jrTC8clPqgcdRXfUCI-66" value="匡庐见魔" style="rounded=0;whiteSpace=wrap;html=1;" vertex="1" parent="WIyWlLk6GJQsqaUBKTNV-1">
          <mxGeometry x="130" y="1040" width="120" height="40" as="geometry" />
        </mxCell>
        <mxCell id="z7jrTC8clPqgcdRXfUCI-74" value="匡庐见魔" style="rounded=0;whiteSpace=wrap;html=1;" vertex="1" parent="WIyWlLk6GJQsqaUBKTNV-1">
          <mxGeometry x="130" y="1270" width="120" height="40" as="geometry" />
        </mxCell>
        <mxCell id="z7jrTC8clPqgcdRXfUCI-75" value="&lt;strong style=&quot;outline: none; max-width: 100%; box-sizing: border-box; color: rgb(61, 69, 77); font-family: -apple-system, BlinkMacSystemFont, &amp;quot;Segoe UI&amp;quot;, &amp;quot;Microsoft YaHei&amp;quot;, &amp;quot;Trebuchet MS&amp;quot;, Calibri, &amp;quot;Helvetica Neue&amp;quot;, Helvetica, sans-serif; font-size: 14px; text-align: start; background-color: rgb(255, 255, 255);&quot;&gt;死城啸声&lt;/strong&gt;" style="rounded=0;whiteSpace=wrap;html=1;" vertex="1" parent="WIyWlLk6GJQsqaUBKTNV-1">
          <mxGeometry y="1220" width="120" height="40" as="geometry" />
        </mxCell>
        <mxCell id="z7jrTC8clPqgcdRXfUCI-76" value="无" style="rounded=0;whiteSpace=wrap;html=1;" vertex="1" parent="WIyWlLk6GJQsqaUBKTNV-1">
          <mxGeometry x="260" y="1320" width="120" height="40" as="geometry" />
        </mxCell>
        <mxCell id="z7jrTC8clPqgcdRXfUCI-78" value="云湖天葬" style="rounded=0;whiteSpace=wrap;html=1;" vertex="1" parent="WIyWlLk6GJQsqaUBKTNV-1">
          <mxGeometry x="130" y="1220" width="120" height="40" as="geometry" />
        </mxCell>
        <mxCell id="z7jrTC8clPqgcdRXfUCI-81" value="&lt;span style=&quot;outline: none; max-width: 100%; box-sizing: border-box; color: rgb(61, 69, 77); font-family: -apple-system, BlinkMacSystemFont, &amp;quot;Segoe UI&amp;quot;, &amp;quot;Microsoft YaHei&amp;quot;, &amp;quot;Trebuchet MS&amp;quot;, Calibri, &amp;quot;Helvetica Neue&amp;quot;, Helvetica, sans-serif; font-size: 14px; text-align: start; background-color: rgb(255, 255, 255);&quot;&gt;死城啸声&lt;/span&gt;" style="rounded=0;whiteSpace=wrap;html=1;fontStyle=0" vertex="1" parent="WIyWlLk6GJQsqaUBKTNV-1">
          <mxGeometry x="260" y="1270" width="120" height="40" as="geometry" />
        </mxCell>
        <mxCell id="z7jrTC8clPqgcdRXfUCI-87" value="死城啸声" style="rounded=0;whiteSpace=wrap;html=1;" vertex="1" parent="WIyWlLk6GJQsqaUBKTNV-1">
          <mxGeometry x="130" y="1540" width="120" height="40" as="geometry" />
        </mxCell>
        <mxCell id="z7jrTC8clPqgcdRXfUCI-88" value="&lt;strong style=&quot;outline: none; max-width: 100%; box-sizing: border-box; color: rgb(61, 69, 77); font-family: -apple-system, BlinkMacSystemFont, &amp;quot;Segoe UI&amp;quot;, &amp;quot;Microsoft YaHei&amp;quot;, &amp;quot;Trebuchet MS&amp;quot;, Calibri, &amp;quot;Helvetica Neue&amp;quot;, Helvetica, sans-serif; font-size: 14px; text-align: start; background-color: rgb(255, 255, 255);&quot;&gt;九嶷环岳葬&lt;/strong&gt;" style="rounded=0;whiteSpace=wrap;html=1;" vertex="1" parent="WIyWlLk6GJQsqaUBKTNV-1">
          <mxGeometry y="1390" width="120" height="40" as="geometry" />
        </mxCell>
        <mxCell id="z7jrTC8clPqgcdRXfUCI-89" value="云湖天葬" style="rounded=0;whiteSpace=wrap;html=1;" vertex="1" parent="WIyWlLk6GJQsqaUBKTNV-1">
          <mxGeometry x="260" y="1540" width="120" height="40" as="geometry" />
        </mxCell>
        <mxCell id="z7jrTC8clPqgcdRXfUCI-91" value="匡庐见魔" style="rounded=0;whiteSpace=wrap;html=1;" vertex="1" parent="WIyWlLk6GJQsqaUBKTNV-1">
          <mxGeometry x="130" y="1440" width="120" height="40" as="geometry" />
        </mxCell>
        <mxCell id="z7jrTC8clPqgcdRXfUCI-92" value="云湖天葬" style="rounded=0;whiteSpace=wrap;html=1;fontStyle=0;fontColor=default;fontSize=12;" vertex="1" parent="WIyWlLk6GJQsqaUBKTNV-1">
          <mxGeometry x="130" y="1490" width="120" height="40" as="geometry" />
        </mxCell>
        <mxCell id="z7jrTC8clPqgcdRXfUCI-93" value="&lt;div style=&quot;text-align: start;&quot;&gt;神树夺株&lt;br&gt;&lt;/div&gt;" style="rounded=0;whiteSpace=wrap;html=1;" vertex="1" parent="WIyWlLk6GJQsqaUBKTNV-1">
          <mxGeometry x="130" y="1390" width="120" height="40" as="geometry" />
        </mxCell>
        <mxCell id="z7jrTC8clPqgcdRXfUCI-98" value="&lt;div style=&quot;text-align: start;&quot;&gt;无&lt;br&gt;&lt;/div&gt;" style="rounded=0;whiteSpace=wrap;html=1;" vertex="1" parent="WIyWlLk6GJQsqaUBKTNV-1">
          <mxGeometry x="260" y="390" width="120" height="40" as="geometry" />
        </mxCell>
        <mxCell id="z7jrTC8clPqgcdRXfUCI-99" value="匡庐见魔" style="rounded=0;whiteSpace=wrap;html=1;" vertex="1" parent="WIyWlLk6GJQsqaUBKTNV-1">
          <mxGeometry x="260" y="515" width="120" height="40" as="geometry" />
        </mxCell>
      </root>
    </mxGraphModel>
  </diagram>
</mxfile>
